<?xml version="1.0" encoding="UTF-8" standalone="no"?>
<svg
   xmlns:dc="http://purl.org/dc/elements/1.1/"
   xmlns:cc="http://creativecommons.org/ns#"
   xmlns:rdf="http://www.w3.org/1999/02/22-rdf-syntax-ns#"
   xmlns:svg="http://www.w3.org/2000/svg"
   xmlns="http://www.w3.org/2000/svg"
   viewBox="0 0 588 325.33334"
   height="325.33334"
   width="588"
   xml:space="preserve"
   id="svg2"
   version="1.1"><metadata
     id="metadata8"><rdf:RDF><cc:Work
         rdf:about=""><dc:format>image/svg+xml</dc:format><dc:type
           rdf:resource="http://purl.org/dc/dcmitype/StillImage" /></cc:Work></rdf:RDF></metadata><defs
     id="defs6" /><g
     transform="matrix(1.3333333,0,0,-1.3333333,0,325.33333)"
     id="g10"><g
       transform="scale(0.1)"
       id="g12"><path
         id="path14"
         style="fill:#91288c;fill-opacity:1;fill-rule:evenodd;stroke:none"
         d="m 1120.98,1861.13 c -5.08,-12.77 17.97,-92.61 69.1,-239.49 51.17,-146.41 161.48,-284.37 330.9,-413.87 2.03,-3.51 22.03,-14.33 59.88,-32.18 37.89,-17.93 82.93,-20.24 135.12,-6.92 4.61,-2.58 20.43,8.17 47.61,32.23 27.11,23.55 37.07,75.74 29.93,156.6 -7.66,12.3 -6.18,75.27 4.6,188.87 10.75,113.63 76.02,206.48 195.79,278.71 12.22,14.8 76.99,32.19 194.21,52.19 117.74,19.41 215.98,-48.13 294.77,-202.66 6.17,0 28.67,-15.9 67.62,-47.66 38.87,-32.18 57.26,-79.02 55.23,-140.47 0.55,-11.25 -8.71,-11.25 -27.65,0 -3.05,6.14 -30.16,24.85 -81.33,56.06 -50.67,30.7 -106.76,36.87 -168.17,18.4 -10.19,0 -31.21,-21.49 -62.93,-64.49 -31.71,-42.47 -12.54,-106.68 57.58,-192.7 124.34,-144.3 201.64,-273.79 231.8,-388.398 30.74,-114.692 43.79,-175.313 39.18,-181.993 5.62,-10.238 0,-76.519 -16.84,-198.828 -16.4,-122.34 -78.08,-239.019 -185.04,-350.082 -1.56,-12.769 -63.98,-51.168 -187.3,-115.1482 -122.85,-63.99221 -295.9,-78.32033 -518.99,-43.0117 -17.42,-4.0586 -150.74,40.7422 -400,134.3319 -249.76,93.719 -510.78,260.551 -783.081,500.59 -7.66,6.641 -35.547,37.617 -83.668,92.891 -48.09,55.777 -69.852,96.449 -65.242,122.07 -2.028,4.058 5.632,6.918 23.05,8.437 17.379,2.071 56.52,-21.519 117.422,-70.629 6.641,-6.679 40.43,-31.75 101.367,-75.23 60.864,-43.52 107.692,-64.219 140.473,-62.191 2.578,-0.539 4.84,3.601 6.867,12.312 1.563,8.668 -13.547,26.09 -45.269,52.18 -13.789,2.578 -98.789,87.5 -254.848,254.89 C 286.988,1163.28 141.91,1398.2 7.80859,1700.66 c -11.75781,15.39 -10.26953,36.84 4.61331,64.5 0.4687,2.57 7.457,2.81 20.6992,0.78 13.8672,-1.56 31.4883,-19.73 53.0078,-54.53 C 90.6992,1698.09 150.391,1611.13 265,1450.39 379.141,1289.18 520.391,1134.84 688.789,987.5 c 16.371,-17.422 38.402,-28.441 65.981,-33.051 3.121,-2.07 2.808,5.942 -0.711,23.789 -4.137,17.934 -30.7,57.812 -79.918,119.772 -14.801,3.08 -94.141,96.21 -237.969,279.45 -143.281,183.79 -263.32,440.98 -360.0431,771.56 -4.0976,10.75 -14.8008,56.57 -32.2187,137.39 -17.9297,80.39 -17.461,130.27 1.5195,149.72 1.0195,8.21 16.1289,3.36 45.2695,-14.57 29.2228,-17.42 67.8208,-96.99 115.9418,-238.79 0.55,-5.58 23.007,-60.07 67.578,-163.47 45.043,-102.89 110,-220.08 195,-351.6 85.472,-131.53 188.551,-242.39 309.371,-332.47 14.34,-16.36 37.351,-22.26 69.07,-17.61 17.961,-4.1 3.36,23 -43.711,81.36 -12.308,5.12 -73.719,81.88 -184.258,230.32 -111.062,148.4 -198.089,336.25 -261.019,563.51 -2.582,7.66 -8.442,41.17 -17.692,100.59 -9.179,58.83 -5.082,97.46 12.301,115.86 1.02,3.12 8.438,1.79 22.27,-3.83 13.828,-5.59 29.41,-33.24 46.828,-82.89 0.551,-5.12 14.57,-47.34 42.23,-126.68 27.661,-79.34 66.481,-162.5 116.719,-249.49 49.57,-85.47 116.641,-175.82 201.094,-270.98 84.457,-95.27 191.68,-180.19 321.638,-254.92 8.71,-11.29 9.49,-1.56 2.35,29.14 -6.64,6.17 -28.4,56.33 -65.24,150.51 -36.91,94.68 -49.92,196.76 -39.18,306.29 -0.54,3.12 3.6,14.88 12.31,35.31 9.18,20.51 25.31,29.69 48.32,27.66 14.33,15.35 33.79,-20.75 58.36,-108.25" /><path
         id="path16"
         style="fill:#ffffff;fill-opacity:1;fill-rule:evenodd;stroke:none"
         d="m 2271.02,1699.14 c -3.09,-29.69 -19.46,-46.09 -49.14,-49.14 -30.16,3.05 -46.53,19.45 -49.11,49.14 2.58,30.2 18.95,46.6 49.11,49.18 29.68,-2.58 46.05,-18.98 49.14,-49.18" /><path
         id="path18"
         style="fill:#eb2178;fill-opacity:1;fill-rule:evenodd;stroke:none"
         d="m 2633.4,1348.32 c -8.24,2.03 -28.13,-8.98 -59.88,-33.05 -32.27,-23.51 -27.62,-72.38 13.82,-146.6 12.78,-0.55 44.77,-69.37 95.94,-206.561 51.72,-136.597 47.62,-336.757 -12.3,-600.308 -3.6,-1.571 -6.64,-16.922 -9.14,-46.063 -2.62,-29.687 16.6,-65 57.57,-105.968 -2.61,-3.051 13.56,-12 48.32,-26.879 34.81,-14.34 101.61,-18.161 200.39,-11.52 6.14,-2.5 70.12,13.629 191.92,48.399 121.84,34.8 263.87,103.39 426.09,205.742 161.68,102.379 306.06,253.59 432.97,453.707 4.61,7.152 19.45,36.832 44.49,89.062 25.16,52.189 32.31,84.689 21.57,97.459 7.11,18.48 -22.27,-1.72 -88.28,-60.62 -10.75,-13.319 -63.25,-59.608 -157.39,-138.948 -94.18,-79.293 -163.28,-113.871 -207.3,-103.672 -13.87,-3.52 -3.83,10.82 29.92,43.012 17.93,9.258 110.31,93.16 277.19,251.828 166.83,159.14 299.88,337.5 399.18,535.08 2.54,3.05 7.93,17.7 16.13,43.79 8.71,25.55 6.68,44.26 -6.17,56.02 2.03,18.39 -25.55,-5.9 -82.89,-72.93 -7.66,-15.35 -77.31,-92.62 -208.83,-231.84 -130.98,-139.18 -280.7,-248.48 -449.1,-327.81 -14.85,-9.26 -32.54,-11.53 -52.97,-6.92 6.64,29.15 17.62,47.35 32.97,54.54 9.26,4.06 75.5,64.96 198.9,182.69 123.32,118.2 249.96,269.22 380,452.93 130.51,183.71 210.59,376.21 240.28,577.34 0.54,3.56 -1.02,16.1 -4.61,37.62 -4.07,21.49 -15.59,31.99 -34.53,31.49 -4.11,14.33 -24.3,-16.37 -60.67,-92.11 -0.54,-7.19 -31.48,-71.45 -92.89,-192.74 -60.9,-120.78 -149.45,-254.1 -265.66,-399.96 -116.17,-146.41 -256.88,-261.01 -422.23,-343.91 -13.79,-11.83 -32.73,-10.03 -56.8,5.32 -17.89,2.03 -1.01,40.43 50.67,115.15 18.44,10.75 95.43,102.15 231.09,274.11 135.16,171.95 217.81,359.53 247.97,562.73 1.02,4.06 -0.23,19.96 -3.83,47.62 -3.08,27.61 -14.06,43.47 -33.01,47.54 -6.64,15.35 -26.36,-9.97 -59.14,-75.98 1.57,-6.13 -23.51,-65.27 -75.19,-177.34 -51.72,-111.57 -138.44,-238.25 -260.24,-380.04 -122.38,-141.72 -288.43,-260.47 -498.32,-356.21 -8.16,-6.1 -17.07,-2.82 -26.87,10.03 -8.13,1.49 2.34,16.37 31.48,44.5 6.68,3.04 34.81,35.82 84.46,98.24 50.15,62.42 84.45,134.1 102.89,214.96 1.01,2.58 0.51,13.32 -1.53,32.27 -2.03,18.39 -11.01,28.43 -26.87,29.92 -0.51,17.93 -29.92,-14.34 -88.28,-96.72 1.52,-10.2 -38.13,-64.26 -118.99,-161.95 -81.4,-97.78 -212.15,-179.93 -392.3,-246.45" /></g></g></svg>